<mxfile host="app.diagrams.net" modified="2021-05-21T08:05:27.235Z" agent="5.0 (Macintosh; Intel Mac OS X 10_15_7) AppleWebKit/537.36 (KHTML, like Gecko) Chrome/90.0.4430.212 Safari/537.36" etag="Pw5A3mlFdfBtIuO-EGht" version="14.6.13" type="github">
  <diagram id="SWRy2boj0B9asELiRcfk" name="Page-1">
    <mxGraphModel dx="1298" dy="808" grid="1" gridSize="10" guides="1" tooltips="1" connect="1" arrows="1" fold="1" page="1" pageScale="1" pageWidth="827" pageHeight="1169" math="0" shadow="0">
      <root>
        <mxCell id="0" />
        <mxCell id="1" parent="0" />
        <mxCell id="fdSkNPlMsXK7n2FcaERr-7" style="edgeStyle=orthogonalEdgeStyle;rounded=0;orthogonalLoop=1;jettySize=auto;html=1;entryX=0.5;entryY=0;entryDx=0;entryDy=0;" edge="1" parent="1" source="fdSkNPlMsXK7n2FcaERr-1" target="fdSkNPlMsXK7n2FcaERr-6">
          <mxGeometry relative="1" as="geometry" />
        </mxCell>
        <mxCell id="fdSkNPlMsXK7n2FcaERr-10" style="rounded=0;orthogonalLoop=1;jettySize=auto;html=1;entryX=0.5;entryY=0;entryDx=0;entryDy=0;" edge="1" parent="1" source="fdSkNPlMsXK7n2FcaERr-1" target="fdSkNPlMsXK7n2FcaERr-8">
          <mxGeometry relative="1" as="geometry" />
        </mxCell>
        <mxCell id="fdSkNPlMsXK7n2FcaERr-1" value="App" style="rounded=1;whiteSpace=wrap;html=1;" vertex="1" parent="1">
          <mxGeometry x="170" y="110" width="120" height="60" as="geometry" />
        </mxCell>
        <mxCell id="fdSkNPlMsXK7n2FcaERr-11" style="edgeStyle=none;rounded=0;orthogonalLoop=1;jettySize=auto;html=1;entryX=0.5;entryY=0;entryDx=0;entryDy=0;" edge="1" parent="1" source="fdSkNPlMsXK7n2FcaERr-2" target="fdSkNPlMsXK7n2FcaERr-9">
          <mxGeometry relative="1" as="geometry" />
        </mxCell>
        <mxCell id="fdSkNPlMsXK7n2FcaERr-13" value="用户使用" style="edgeLabel;html=1;align=center;verticalAlign=middle;resizable=0;points=[];" vertex="1" connectable="0" parent="fdSkNPlMsXK7n2FcaERr-11">
          <mxGeometry x="-0.0846" y="2" relative="1" as="geometry">
            <mxPoint as="offset" />
          </mxGeometry>
        </mxCell>
        <mxCell id="fdSkNPlMsXK7n2FcaERr-2" value="H5&lt;br&gt;(营销活动)" style="rounded=1;whiteSpace=wrap;html=1;" vertex="1" parent="1">
          <mxGeometry x="490" y="110" width="120" height="60" as="geometry" />
        </mxCell>
        <mxCell id="fdSkNPlMsXK7n2FcaERr-12" style="edgeStyle=none;rounded=0;orthogonalLoop=1;jettySize=auto;html=1;entryX=0.5;entryY=0;entryDx=0;entryDy=0;" edge="1" parent="1" source="fdSkNPlMsXK7n2FcaERr-3" target="fdSkNPlMsXK7n2FcaERr-9">
          <mxGeometry relative="1" as="geometry" />
        </mxCell>
        <mxCell id="fdSkNPlMsXK7n2FcaERr-14" value="运营老师配置活动" style="edgeLabel;html=1;align=center;verticalAlign=middle;resizable=0;points=[];" vertex="1" connectable="0" parent="fdSkNPlMsXK7n2FcaERr-12">
          <mxGeometry x="-0.1019" y="2" relative="1" as="geometry">
            <mxPoint as="offset" />
          </mxGeometry>
        </mxCell>
        <mxCell id="fdSkNPlMsXK7n2FcaERr-3" value="运营后台" style="rounded=1;whiteSpace=wrap;html=1;" vertex="1" parent="1">
          <mxGeometry x="700" y="110" width="120" height="60" as="geometry" />
        </mxCell>
        <mxCell id="fdSkNPlMsXK7n2FcaERr-4" value="管理后台（CMS）" style="rounded=1;whiteSpace=wrap;html=1;" vertex="1" parent="1">
          <mxGeometry x="910" y="110" width="120" height="60" as="geometry" />
        </mxCell>
        <mxCell id="fdSkNPlMsXK7n2FcaERr-5" value="shizi-server&lt;br&gt;（足部废弃）" style="rounded=1;whiteSpace=wrap;html=1;dashed=1;" vertex="1" parent="1">
          <mxGeometry x="290" y="290" width="90" height="60" as="geometry" />
        </mxCell>
        <mxCell id="fdSkNPlMsXK7n2FcaERr-6" value="shizi-inclass&lt;br&gt;(App课中流程)" style="rounded=1;whiteSpace=wrap;html=1;" vertex="1" parent="1">
          <mxGeometry x="170" y="290" width="120" height="60" as="geometry" />
        </mxCell>
        <mxCell id="fdSkNPlMsXK7n2FcaERr-8" value="shizi-integral-mall&lt;br&gt;（积分商城）" style="rounded=1;whiteSpace=wrap;html=1;" vertex="1" parent="1">
          <mxGeometry x="414" y="290" width="120" height="60" as="geometry" />
        </mxCell>
        <mxCell id="fdSkNPlMsXK7n2FcaERr-9" value="shizi-activity" style="rounded=1;whiteSpace=wrap;html=1;" vertex="1" parent="1">
          <mxGeometry x="590" y="290" width="120" height="60" as="geometry" />
        </mxCell>
      </root>
    </mxGraphModel>
  </diagram>
</mxfile>
